<?xml version="1.0" encoding="iso-8859-1"?>
<!-- Generator: Adobe Illustrator 19.0.0, SVG Export Plug-In . SVG Version: 6.00 Build 0)  -->
<svg version="1.1" id="Capa_1" xmlns="http://www.w3.org/2000/svg" xmlns:xlink="http://www.w3.org/1999/xlink" x="0px" y="0px"
	 viewBox="0 0 512 512" style="enable-background:new 0 0 512 512;" xml:space="preserve">
<path style="fill:#009AD2;" d="M210.999,338.979c-2.537-5.138-4.98-10.366-7.316-15.656
	c-22.764-52.778-36.352-114.83-36.352-166.002v-33.45h-30v33.45c0,39.498,7.076,83.472,19.932,126.056l-14.178,19.936
	c-28.083-42.348-43.513-83.788-49.399-131.897v-2.545h-30v4.345l0.106,0.889c7.133,59.566,28.466,111.716,67.137,164.119
	l12.294,16.659l26.016-36.581c2.205,5.715,4.511,11.374,6.92,16.958l0.05,0.114c10.76,24.382,23.73,47.657,37.507,67.311
	l27.283,38.92L241,77.017h-30L210.999,338.979z"/>
<g>
	<path style="fill:#007CAA;" d="M395.602,209.842c0.587-0.494,1.169-0.996,1.747-1.505c9.1-8.024,14.319-20.019,14.319-32.908
		c0-13.235-5.804-25.754-15.923-34.346c-29.953-25.432-63.275-47.094-96.363-62.643l-3.031-1.424h-25.352l0.004,362.683
		l23.716-16.935c31.982-22.837,61.807-52.023,86.251-84.405l0.097-0.13c17.813-24.138,31.118-46.574,40.672-68.59
		c2.342-5.396,3.529-11.28,3.529-17.487C425.268,232.722,412.887,216.127,395.602,209.842z M300.999,112.754
		c25.944,13.654,51.726,31.157,75.33,51.198c3.394,2.881,5.34,7.064,5.34,11.477c0,4.282-1.517,8.075-4.16,10.406
		c-4.665,4.112-10.254,7.899-16.727,12.285l-0.131,0.088c-17.356,11.489-37.691,22.12-59.65,31.229L300.999,112.754z
		 M394.218,257.697c-8.632,19.892-20.814,40.387-37.242,62.653c-16.435,21.762-35.474,41.95-55.975,59.445L301,261.731
		c15.729-6.029,30.858-12.825,44.98-20.19c11.133-2.913,22.659-4.389,34.288-4.389c8.271,0,15,6.729,15,15
		C395.268,254.226,394.915,256.091,394.218,257.697z"/>
	<path style="fill:#007CAA;" d="M451,98.842V68.841L391,56.89v-30L256,0l-10,15.295l10,15.295l105,20.915v30l60,11.951v30.001
		l59.851,11.921c-2.068,84.092-25.688,152.502-75.763,220.283c-41.333,54.842-95.37,99.58-149.088,123.613l-10,16.364L256,512
		l5.804-2.548c60.362-25.331,121.319-74.805,167.271-135.774l0.109-0.146C485.767,296.94,511,219.705,511,123.1v-12.307L451,98.842z
		"/>
</g>
<path style="fill:#009AD2;" d="M106.904,355.649C56.83,287.846,33.217,219.443,31.149,135.377L91,123.457V93.455l60-11.951v-30
	l105-20.915V0L121,26.89v30L61,68.841v30.001L1,110.793V123.1c0,96.605,25.233,173.841,81.817,250.434l0.119,0.158
	c45.935,60.947,106.898,110.43,167.26,135.76L256,512v-32.727C202.299,455.248,148.271,410.519,106.904,355.649z"/>
<g>
</g>
<g>
</g>
<g>
</g>
<g>
</g>
<g>
</g>
<g>
</g>
<g>
</g>
<g>
</g>
<g>
</g>
<g>
</g>
<g>
</g>
<g>
</g>
<g>
</g>
<g>
</g>
<g>
</g>
</svg>
