<?xml version="1.0" encoding="iso-8859-1"?>
<!-- Generator: Adobe Illustrator 19.0.0, SVG Export Plug-In . SVG Version: 6.00 Build 0)  -->
<svg version="1.1" id="Capa_1" xmlns="http://www.w3.org/2000/svg" xmlns:xlink="http://www.w3.org/1999/xlink" x="0px" y="0px"
	 viewBox="0 0 512 512" style="enable-background:new 0 0 512 512;" xml:space="preserve">
<rect x="120" y="241" style="fill:#4FA811;" width="30" height="30"/>
<path style="fill:#3C8819;" d="M452,136v150c0,16.542-13.458,30-30,30s-30-13.458-30-30V136h-60v150c0,16.542-13.458,30-30,30
	l-20,31l20,29c23.031,0,44.065-8.7,60-22.98C377.935,367.3,398.969,376,422,376c49.626,0,90-40.374,90-90V136H452z"/>
<path style="fill:#4FA811;" d="M272,286V136h-60v150c0,16.542-13.458,30-30,30h-62c-33.084,0-60-26.916-60-60s26.916-60,60-60h62
	v-60h-62C53.832,136,0,189.832,0,256s53.832,120,120,120h62c23.031,0,44.065-8.7,60-22.98C257.935,367.3,278.969,376,302,376v-60
	C285.458,316,272,302.542,272,286z"/>
<g>
</g>
<g>
</g>
<g>
</g>
<g>
</g>
<g>
</g>
<g>
</g>
<g>
</g>
<g>
</g>
<g>
</g>
<g>
</g>
<g>
</g>
<g>
</g>
<g>
</g>
<g>
</g>
<g>
</g>
</svg>
