<svg xmlns="http://www.w3.org/2000/svg" xmlns:xlink="http://www.w3.org/1999/xlink">
    <symbol id="anchor" viewBox="0 0 22 31">
        <path d="M21.926 17.97a.64.64 0 0 1-.567.349h-1.35c-.502 3.494-3.455 7.059-6.78 8.237l.25.312c.177.22.192.535.037.774l-1.98 3.063a.638.638 0 0 1-.536.294.639.639 0 0 1-.536-.294l-1.98-3.063a.665.665 0 0 1 .037-.774l.249-.312c-3.325-1.178-6.277-4.743-6.78-8.238H.64a.64.64 0 0 1-.566-.348.667.667 0 0 1 .036-.674l2.509-3.774a.638.638 0 0 1 1.061 0l2.51 3.774c.133.2.146.46.035.674a.64.64 0 0 1-.566.348H4.42c.534 2.248 2.749 4.048 5.084 4.613V8.466H7.509c-.55 0-.997-.456-.997-1.018s.446-1.018.997-1.018h1.027A3.728 3.728 0 0 1 7.36 3.713C7.36 1.665 8.993-.002 11-.002c2.006 0 3.64 1.667 3.64 3.715a3.73 3.73 0 0 1-1.177 2.717h1.028c.55 0 .997.456.997 1.018s-.446 1.018-.997 1.018h-1.995v14.465c2.335-.565 4.549-2.366 5.083-4.613H16.34a.64.64 0 0 1-.567-.348.667.667 0 0 1 .036-.674l2.51-3.774a.637.637 0 0 1 1.06 0l2.51 3.774c.133.2.147.46.036.674zM9.355 3.713c0 .926.738 1.678 1.645 1.678s1.645-.752 1.645-1.678c0-.926-.738-1.679-1.645-1.679s-1.645.753-1.645 1.679z"/>
    </symbol>
    <symbol id="separator" viewBox="0 0 195 7">
        <g>
          <path fill="var(--color-circle)"
          d="M97.776 0c1.83 0 3.312 1.566 3.312 3.5 0 1.932-1.483 3.499-3.312 3.499-1.83 0-3.312-1.567-3.312-3.5S95.947 0 97.776 0z"/>
          <path fill="var(--color-line)" d="M0 4.083v-.584h79.495v.584z"/> 
          <path fill="var(--color-line)" d="M115.505 4.083v-.584H195v.584z"/>
        </g>
    </symbol>
    <symbol id="glasses" viewBox="0 0 459.52 459.52">
        <g>
            <g>
                <g>
                    <path d="M451.52,221.76h-35.2c-4.21-44.47-43.673-77.107-88.143-72.897c-38.644,3.658-69.239,34.254-72.897,72.897h-51.04
			c-4.21-44.47-43.673-77.107-88.143-72.897c-38.644,3.658-69.239,34.254-72.897,72.897H8c-4.418,0-8,3.582-8,8s3.582,8,8,8h35.2
			c4.21,44.47,43.673,77.107,88.143,72.897c38.644-3.658,69.239-34.254,72.897-72.897h51.12c4.21,44.47,43.673,77.107,88.143,72.897
			c38.644-3.658,69.239-34.254,72.897-72.897h35.12c4.418,0,8-3.582,8-8S455.938,221.76,451.52,221.76z M123.68,294.72h-0.16
			c-35.876-0.088-64.888-29.243-64.8-65.12c0.088-35.876,29.243-64.888,65.12-64.8c35.814,0.088,64.8,29.146,64.8,64.96
			C188.64,265.636,159.556,294.72,123.68,294.72z M335.84,294.72h-0.16c-35.876-0.088-64.888-29.243-64.8-65.12
			c0.088-35.876,29.243-64.888,65.12-64.8c35.814,0.088,64.8,29.146,64.8,64.96C400.8,265.636,371.716,294.72,335.84,294.72z"/>
                </g>
            </g>
            <g>
                <g>
                    <path d="M132.56,178.96L132.56,178.96c-4.418,0-8,3.582-8,8s3.582,8,8,8c14.536,0,26.32,11.784,26.32,26.32c0,4.418,3.582,8,8,8
			s8-3.582,8-8C174.88,197.907,155.933,178.96,132.56,178.96z"/>
                </g>
            </g>
            <g>
                <g>
                    <path d="M344.24,178.96L344.24,178.96c-4.418,0-8,3.582-8,8s3.582,8,8,8c14.536,0,26.32,11.784,26.32,26.32c0,4.418,3.582,8,8,8
			s8-3.582,8-8C386.56,197.907,367.613,178.96,344.24,178.96z"/>
                </g>
            </g>
        </g>
    </symbol>
    <symbol id="heart" viewBox="0 -28 512.001 512">
        <path d="m256 455.515625c-7.289062 0-14.316406-2.640625-19.792969-7.4375-20.683593-18.085937-40.625-35.082031-58.21875-50.074219l-.089843-.078125c-51.582032-43.957031-96.125-81.917969-127.117188-119.3125-34.644531-41.804687-50.78125-81.441406-50.78125-124.742187 0-42.070313 14.425781-80.882813 40.617188-109.292969 26.503906-28.746094 62.871093-44.578125 102.414062-44.578125 29.554688 0 56.621094 9.34375 80.445312 27.769531 12.023438 9.300781 22.921876 20.683594 32.523438 33.960938 9.605469-13.277344 20.5-24.660157 32.527344-33.960938 23.824218-18.425781 50.890625-27.769531 80.445312-27.769531 39.539063 0 75.910156 15.832031 102.414063 44.578125 26.191406 28.410156 40.613281 67.222656 40.613281 109.292969 0 43.300781-16.132812 82.9375-50.777344 124.738281-30.992187 37.398437-75.53125 75.355469-127.105468 119.308594-17.625 15.015625-37.597657 32.039062-58.328126 50.167969-5.472656 4.789062-12.503906 7.429687-19.789062 7.429687zm-112.96875-425.523437c-31.066406 0-59.605469 12.398437-80.367188 34.914062-21.070312 22.855469-32.675781 54.449219-32.675781 88.964844 0 36.417968 13.535157 68.988281 43.882813 105.605468 29.332031 35.394532 72.960937 72.574219 123.476562 115.625l.09375.078126c17.660156 15.050781 37.679688 32.113281 58.515625 50.332031 20.960938-18.253907 41.011719-35.34375 58.707031-50.417969 50.511719-43.050781 94.136719-80.222656 123.46875-115.617188 30.34375-36.617187 43.878907-69.1875 43.878907-105.605468 0-34.515625-11.605469-66.109375-32.675781-88.964844-20.757813-22.515625-49.300782-34.914062-80.363282-34.914062-22.757812 0-43.652344 7.234374-62.101562 21.5-16.441406 12.71875-27.894532 28.796874-34.609375 40.046874-3.453125 5.785157-9.53125 9.238282-16.261719 9.238282s-12.808594-3.453125-16.261719-9.238282c-6.710937-11.25-18.164062-27.328124-34.609375-40.046874-18.449218-14.265626-39.34375-21.5-62.097656-21.5zm0 0"/>

    </symbol>
    <symbol id="light-bulb" viewBox="0 0 480.005 480.005">
        <g>
            <path d="M240.003,48c4.418,0,8-3.582,8-8V8c0-4.418-3.582-8-8-8s-8,3.582-8,8v32C232.003,44.418,235.584,48,240.003,48z"/>
            <path d="M141.075,36.656l16,27.704c2.184,3.841,7.068,5.184,10.909,3s5.184-7.068,3-10.909c-0.017-0.031-0.035-0.061-0.053-0.092
				l-16-27.704c-2.184-3.841-7.068-5.184-10.909-3c-3.841,2.184-5.184,7.068-3,10.909C141.039,36.595,141.057,36.626,141.075,36.656
				z"/>
            <path d="M76.567,106.875c0.03,0.018,0.061,0.035,0.092,0.053l27.704,16c3.812,2.234,8.713,0.956,10.947-2.856
				c2.234-3.812,0.956-8.713-2.856-10.947c-0.03-0.018-0.061-0.035-0.092-0.053l-27.704-16c-3.812-2.234-8.713-0.956-10.947,2.856
				C71.477,99.739,72.755,104.641,76.567,106.875z"/>
            <path d="M96.003,192c0-4.418-3.582-8-8-8h-32c-4.418,0-8,3.582-8,8s3.582,8,8,8h32C92.421,200,96.003,196.418,96.003,192z"/>
            <path d="M104.456,261.018c-0.031,0.018-0.062,0.036-0.093,0.054l-27.704,16c-3.841,2.183-5.185,7.067-3.002,10.908
				c2.183,3.841,7.067,5.185,10.908,3.002c0.031-0.018,0.062-0.036,0.093-0.054l27.704-16c3.841-2.183,5.185-7.067,3.002-10.908
				C113.181,260.179,108.297,258.835,104.456,261.018z"/>
            <path d="M403.44,277.126c-0.031-0.018-0.062-0.036-0.093-0.054l-27.704-16c-3.811-2.235-8.713-0.957-10.948,2.854
				c-2.235,3.811-0.957,8.713,2.854,10.948c0.031,0.018,0.062,0.036,0.093,0.054l27.704,16c3.811,2.235,8.713,0.957,10.948-2.854
				C408.529,284.262,407.251,279.361,403.44,277.126z"/>
            <path d="M424.003,184h-32c-4.418,0-8,3.582-8,8s3.582,8,8,8h32c4.418,0,8-3.582,8-8S428.421,184,424.003,184z"/>
            <path d="M371.651,124c1.404,0,2.784-0.37,4-1.072l27.704-16c3.841-2.184,5.184-7.068,3-10.909s-7.068-5.184-10.909-3
				c-0.031,0.017-0.061,0.035-0.092,0.053l-27.704,16c-3.826,2.209-5.137,7.102-2.928,10.928
				C366.152,122.475,368.793,124,371.651,124z"/>
            <path d="M311.993,67.291c0.003,0.002,0.006,0.004,0.009,0.005c3.827,2.207,8.72,0.894,10.927-2.934
				c0-0.001,0.001-0.002,0.001-0.002l16-27.704c2.235-3.811,0.957-8.713-2.854-10.948c-3.811-2.235-8.713-0.957-10.948,2.854
				c-0.018,0.031-0.036,0.062-0.054,0.093l-16,27.704C306.862,60.184,308.169,65.078,311.993,67.291z"/>
            <path d="M256.003,320c4.418,0,8-3.582,8-8v-88h16c17.673,0,32-14.327,32-32s-14.327-32-32-32c-17.673,0-32,14.327-32,32v16h-16
				v-16c0-17.673-14.327-32-32-32s-32,14.327-32,32s14.327,32,32,32h16v88c0,4.418,3.582,8,8,8s8-3.582,8-8v-88h16v88
				C248.003,316.418,251.584,320,256.003,320z M264.003,192c0-8.837,7.163-16,16-16s16,7.163,16,16s-7.163,16-16,16h-16V192z
				 M216.003,208h-16c-8.837,0-16-7.163-16-16s7.163-16,16-16s16,7.163,16,16V208z"/>
            <path d="M246.219,64.152c-70.611-3.392-130.603,51.099-133.995,121.71c-1.943,40.432,15.354,79.4,46.643,105.082
				c5.639,4.417,8.994,11.135,9.136,18.296V328c0.042,10.134,6.445,19.15,16,22.528V360c0.021,5.923,2.245,11.627,6.24,16
				c-8.32,9.044-8.32,22.956,0,32c-8.894,9.75-8.2,24.864,1.55,33.758c4.429,4.04,10.215,6.268,16.21,6.242
				c4.306,0.113,7.889-3.287,8.001-7.593c0.044-1.68-0.456-3.33-1.425-4.703c-0.253-0.489-0.553-0.953-0.896-1.384
				c-0.658-0.602-1.409-1.094-2.224-1.456c-0.232-0.12-0.464-0.216-0.704-0.312c-0.81-0.295-1.659-0.465-2.52-0.504
				c-0.08,0-0.152-0.048-0.232-0.048c-4.418,0-8-3.582-8-8s3.582-8,8-8h32c4.418,0,8-3.582,8-8s-3.582-8-8-8h-32
				c-4.418,0-8-3.582-8-8s3.582-8,8-8h32c4.418,0,8-3.582,8-8s-3.582-8-8-8h-32c-4.418,0-8-3.582-8-8v-8h40c4.418,0,8-3.582,8-8
				s-3.582-8-8-8h-48c-4.418,0-8-3.582-8-8v-18.76c-0.131-11.962-5.64-23.23-15-30.68c-47.788-39.274-54.689-109.852-15.415-157.64
				c22.466-27.336,56.528-42.448,91.871-40.76c59.107,3.516,105.536,51.957,106.544,111.16c0.287,34.052-15.024,66.363-41.56,87.704
				c-9.29,7.652-14.602,19.109-14.44,31.144V328c0,4.418-3.582,8-8,8h-24c-4.418,0-8,3.582-8,8s3.582,8,8,8h16v8
				c0,4.418-3.582,8-8,8h-8c-4.418,0-8,3.582-8,8s3.582,8,8,8h8c4.418,0,8,3.582,8,8s-3.582,8-8,8h-8c-4.418,0-8,3.582-8,8
				s3.582,8,8,8h8c4.418,0,8,3.582,8,8s-3.582,8-8,8h-40c-4.418,0-8,3.582-8,8s3.582,8,8,8h30.632
				c-4.417,12.497-18.129,19.047-30.626,14.63c-3.826-1.352-7.246-3.653-9.942-6.686c-2.938-3.3-7.996-3.594-11.296-0.656
				c-3.3,2.938-3.594,7.996-0.656,11.296c14.631,16.487,39.857,17.992,56.344,3.362c6.81-6.043,11.349-14.232,12.864-23.21
				c12.529-3.916,19.511-17.247,15.596-29.776c-1.04-3.329-2.801-6.388-5.156-8.96c8.32-9.044,8.32-22.956,0-32
				c3.995-4.373,6.219-10.077,6.24-16v-9.472c9.555-3.378,15.958-12.394,16-22.528v-17.832c-0.107-7.187,3.007-14.046,8.488-18.696
				c30.344-24.395,47.85-61.339,47.512-100.272C366.847,123.532,313.777,68.169,246.219,64.152z"/>
        </g>
    </symbol>
    <symbol id="chat" viewBox="0 0 512 512">
        <g>
            <path d="m444.555 191.141h-238c-4.142 0-7.5 3.358-7.5 7.5s3.358 7.5 7.5 7.5h238c4.142 0 7.5-3.358 7.5-7.5s-3.358-7.5-7.5-7.5z"/>
            <path d="m444.555 248.474h-238c-4.142 0-7.5 3.358-7.5 7.5s3.358 7.5 7.5 7.5h238c4.142 0 7.5-3.358 7.5-7.5s-3.358-7.5-7.5-7.5z"/>
            <path d="m444.555 305.807h-238c-4.142 0-7.5 3.358-7.5 7.5s3.358 7.5 7.5 7.5h238c4.142 0 7.5-3.358 7.5-7.5s-3.358-7.5-7.5-7.5z"/>
            <path d="m468.378 125.549h-285.646c-24.053 0-43.622 19.568-43.622 43.622v179.617c0 24.053 19.568 43.622 43.622 43.622h200.211c2.141 0 4.13.963 5.458 2.644l64.655 81.853c2.548 3.226 6.266 4.984 10.159 4.984 1.447 0 2.919-.243 4.363-.745 5.327-1.85 8.769-6.689 8.769-12.328v-77.153c20.225-3.778 35.653-21.659 35.653-42.877v-179.618c0-24.053-19.568-43.621-43.622-43.621zm28.622 223.239c0 15.577-12.673 28.412-28.25 28.61-4.104.053-7.404 3.395-7.404 7.5v78.305l-61.174-77.447c-4.189-5.305-10.469-8.347-17.229-8.347h-200.211c-15.782 0-28.622-12.84-28.622-28.622v-179.617c0-15.782 12.839-28.622 28.622-28.622h285.646c15.782 0 28.622 12.84 28.622 28.622z"/>
            <path d="m110.494 249.561c-5.13.728-9.724 3.369-12.936 7.435l-51.521 65.226v-65.371c0-4.105-3.3-7.447-7.404-7.5-13.031-.166-23.633-10.903-23.633-23.935v-156.361c0-13.203 10.742-23.945 23.945-23.945h248.663c13.203 0 23.945 10.742 23.945 23.945v28.932c0 4.142 3.358 7.5 7.5 7.5s7.5-3.358 7.5-7.5v-28.932c0-21.474-17.471-38.945-38.945-38.945h-248.663c-21.474 0-38.945 17.471-38.945 38.945v156.361c0 18.667 13.371 34.438 31.038 38.124v66.366c0 5.328 3.252 9.901 8.286 11.649 1.365.474 2.755.704 4.123.704 3.677 0 7.192-1.662 9.599-4.709l56.284-71.256c.812-1.029 1.975-1.697 3.273-1.882 4.101-.582 6.954-4.379 6.371-8.48-.582-4.101-4.373-6.956-8.48-6.371z"/>
        </g>
    </symbol>
    <symbol id="monitor" viewBox="0 0 27 22">
  <path d="M21.06585,21.55884c0,0.24284 -0.19924,0.44048 -0.44506,0.44048h-14.24171c-0.24582,0 -0.44506,-0.19764 -0.44506,-0.44048c0,-0.24351 0.19924,-0.4398 0.44506,-0.4398h5.1923v-1.90694c0,-0.24284 0.19924,-0.4398 0.44506,-0.4398c0.24582,0 0.44506,0.19697 0.44506,0.4398v1.90694h2.07687v-1.90694c0,-0.24284 0.19936,-0.4398 0.44506,-0.4398c0.24582,0 0.44506,0.19697 0.44506,0.4398v1.90694h5.1923c0.24582,0 0.44506,0.19629 0.44506,0.4398zM26.99995,1.02634v15.83968c0,0.56594 -0.46589,1.02598 -1.03844,1.02598h-0.74181v0.14773c0,0.24216 -0.19924,0.43913 -0.44506,0.43913c-0.24582,0 -0.44506,-0.19697 -0.44506,-0.43913v-0.14773h-0.89012v0.14773c0,0.24216 -0.19924,0.43913 -0.44506,0.43913c-0.2457,0 -0.44506,-0.19697 -0.44506,-0.43913v-0.14773h-0.89001v0.14773c0,0.24216 -0.19936,0.43913 -0.44506,0.43913c-0.24582,0 -0.44506,-0.19697 -0.44506,-0.43913v-0.14773h-19.73076c-0.57266,0 -1.03855,-0.46004 -1.03855,-1.02598v-15.83968c0,-0.56662 0.46589,-1.02733 1.03855,-1.02733h24.92306c0.57255,0 1.03844,0.46071 1.03844,1.02733zM26.10983,1.02634c0,-0.0796 -0.06798,-0.14773 -0.14832,-0.14773h-24.92306c-0.08045,0 -0.14843,0.06813 -0.14843,0.14773v15.83968c0,0.07892 0.06798,0.14638 0.14843,0.14638h24.92306c0.08034,0 0.14832,-0.06745 0.14832,-0.14638zM25.21971,2.1987v9.38698c0,0.24284 -0.19924,0.4398 -0.44506,0.4398c-0.24582,0 -0.44506,-0.19697 -0.44506,-0.4398v-8.9465h-22.10438c-0.24582,0 -0.44506,-0.19697 -0.44506,-0.44048c0,-0.24284 0.19924,-0.43913 0.44506,-0.43913h22.54944c0.24582,0 0.44506,0.19629 0.44506,0.43913zM25.21971,13.34557v2.34607c0,0.24351 -0.19924,0.44115 -0.44506,0.44115h-22.54944c-0.24582,0 -0.44506,-0.19764 -0.44506,-0.44115v-11.73237c0,-0.24351 0.19924,-0.4398 0.44506,-0.4398c0.24582,0 0.44506,0.19629 0.44506,0.4398v11.29325h21.65932v-1.90694c0,-0.24284 0.19924,-0.4398 0.44506,-0.4398c0.24582,0 0.44506,0.19697 0.44506,0.4398z" fill-opacity="1"></path>
    </symbol>
    <symbol id="papers" viewBox="0 0 31 26">
  <path d="M18.85545,0.31365l11.37222,5.48473c0.43465,0.20978 0.77225,0.55313 0.77225,0.99833c0,0.4452 -0.3376,0.78854 -0.77225,0.99833l-12.00405,5.78963c-0.05836,0.02833 -0.12245,0.04317 -0.18757,0.04452l-8.52905,0.15245c-0.07061,0.00067 -0.14053,-0.01417 -0.20393,-0.04452l-8.52917,-4.11405c-0.43453,-0.20911 -0.77213,-0.55313 -0.77213,-0.99833c0,-0.44385 0.3376,-0.78854 0.77213,-0.99765l15.16308,-7.31343c0.43442,-0.20978 0.94688,-0.31501 1.45935,-0.31501c0.51235,0 1.02459,0.10523 1.45912,0.31501zM16.32848,1.0914l-15.16273,7.31275c-0.25381,0.12257 -0.27629,0.21676 -0.27777,0.22062c0.00148,0.00445 0.02396,0.09864 0.27777,0.22121l8.01716,3.8665l4.22676,-2.03848c0.05527,-0.02698 0.11559,-0.04182 0.17704,-0.04452c0.07427,-0.00337 0.14809,0.01214 0.21469,0.04452l4.22653,2.03848l11.80813,-5.69519c0.25295,-0.12216 0.27614,-0.21613 0.27776,-0.22058c-0.00162,-0.00445 -0.02481,-0.09842 -0.27776,-0.22058l-11.37199,-5.48473c-0.26562,-0.12816 -0.66662,-0.19225 -1.06773,-0.19225c-0.40123,0 -0.80246,0.06341 -1.06785,0.19225zM30.11392,6.79671c0,-0.00022 -0.00003,-0.00022 -0.00011,0c0.00008,0.00022 0.00011,0.00022 0.00011,0zM0.88789,8.62473c0,0.00021 0.00002,0.00022 0.00009,0.00004c-0.00007,-0.0002 -0.00009,-0.00022 -0.00009,-0.00004zM18.75761,2.94573l6.31794,3.04692c0.00355,0.00202 0.00698,0.00337 0.01041,0.0054c0.10826,0.05531 0.1498,0.18685 0.09293,0.29208c-0.05688,0.10658 -0.19077,0.14773 -0.29903,0.09106l-6.31794,-3.04625c-0.07542,-0.03575 -0.1244,-0.10928 -0.12657,-0.19022c-0.00332,-0.12007 0.09315,-0.21923 0.21538,-0.2226c0.03708,-0.00135 0.07381,0.00742 0.10689,0.02361zM15.59881,4.46952l6.31771,3.0476c0.00355,0.00135 0.00698,0.0027 0.01041,0.00405c0.10815,0.05599 0.1498,0.18752 0.09293,0.29343c-0.05688,0.1059 -0.19077,0.14638 -0.29915,0.09039l-6.31771,-3.0476c-0.07507,-0.03508 -0.12371,-0.10793 -0.12611,-0.18887c-0.00355,-0.12007 0.0927,-0.21923 0.21492,-0.22327c0.03708,-0.00067 0.07381,0.00742 0.107,0.02428zM12.4399,5.99265l6.3176,3.0476c0.10986,0.05261 0.15495,0.1828 0.10094,0.29005c-0.05413,0.10658 -0.187,0.15177 -0.29663,0.09848l-6.31771,-3.0476c-0.07507,-0.03508 -0.12383,-0.10725 -0.12623,-0.18887c-0.00355,-0.12007 0.09281,-0.21923 0.21503,-0.22327c0.03708,-0.00067 0.07393,0.00742 0.107,0.02361zM7.07445,6.2456c0.05253,0.10793 0.00538,0.23677 -0.10506,0.28871l-4.33514,2.09042l1.80794,0.87286c0.00355,0.00135 0.00698,0.00337 0.01041,0.00472c0.10815,0.05599 0.1498,0.18617 0.09293,0.29275c-0.05699,0.1059 -0.19077,0.14638 -0.29915,0.09039l-2.21111,-1.06578c-0.04395,-0.02091 -0.07931,-0.05599 -0.10094,-0.09848c-0.05402,-0.10793 -0.00881,-0.23744 0.10094,-0.29005l4.73843,-2.28604c0.03101,-0.01551 0.06535,-0.02361 0.10025,-0.02361c0.08572,-0.00067 0.16388,0.04789 0.2005,0.12412zM10.81678,12.89123l5.37804,-0.09579l-2.58945,-1.24926zM30.86591,11.90234c0.12589,0.26375 0.00984,0.57674 -0.25909,0.70085l-16.95442,8.05947c-0.15049,0.0715 -0.32661,0.07083 -0.47619,-0.00337l-12.86854,-6.32252c-0.00389,-0.0027 -0.00767,-0.00405 -0.01144,-0.00607c-0.26379,-0.13356 -0.36713,-0.45127 -0.23071,-0.70962c0.1363,-0.25768 0.46074,-0.35953 0.72453,-0.2253l12.6313,6.2065l16.71558,-7.94682c0.07565,-0.0371 0.15907,-0.05599 0.24376,-0.05599c0.20794,0.00067 0.397,0.11872 0.48523,0.30287zM18.97253,15.95839c0.06443,0.13154 0.00847,0.28803 -0.12531,0.35144l-5.37712,2.63208c-0.07656,0.0371 -0.16651,0.03643 -0.24261,-0.00135l-4.83948,-2.42094c-0.13184,-0.06611 -0.18414,-0.2253 -0.11684,-0.35414c0.06752,-0.12951 0.22945,-0.18078 0.36186,-0.11535l4.71817,2.36158l5.25581,-2.57204c0.03742,-0.01956 0.07908,-0.02968 0.12142,-0.03035c0.10391,-0.00067 0.19901,0.05801 0.2441,0.14907zM30.86591,17.15301c0.12589,0.26307 0.00984,0.57674 -0.25909,0.69883l-16.95442,8.06015c-0.15049,0.07218 -0.32661,0.07015 -0.47619,-0.0027l-12.86854,-6.32387c-0.00721,-0.00337 -0.01431,-0.00675 -0.02129,-0.01012c-0.26241,-0.13626 -0.36232,-0.45532 -0.22327,-0.71165c0.13905,-0.257 0.46463,-0.35481 0.72693,-0.21855l12.6313,6.2065l16.71558,-7.94547c0.07565,-0.0371 0.15907,-0.05734 0.24376,-0.05599c0.20794,0.00067 0.397,0.11805 0.48523,0.30287zM18.97264,21.20838c0.06443,0.13019 0.00847,0.28803 -0.12531,0.35076l-5.37712,2.6314c-0.07656,0.03777 -0.16651,0.0371 -0.24261,-0.00067l-4.83948,-2.42094c-0.00252,-0.00135 -0.00492,-0.00202 -0.00732,-0.00337c-0.13115,-0.0688 -0.18105,-0.22732 -0.11147,-0.35683c0.06969,-0.12749 0.23243,-0.17606 0.36369,-0.10793l4.71817,2.35956l5.25581,-2.57204c0.03742,-0.01889 0.07908,-0.02901 0.12142,-0.02901c0.10391,-0.00067 0.19901,0.05666 0.24422,0.14907z" fill-opacity="1"></path>
    </symbol>
    <symbol id="camera" viewBox="0 0 25 22">
  <path d="M24.99987,7.59708v10.97958c0,1.86377 -1.51096,3.42265 -3.35163,3.42265h-18.2967c-1.84055,0 -3.35163,-1.55888 -3.35163,-3.42265v-10.97958c0,-1.86512 1.51108,-3.39634 3.35175,-3.39634l2.4313,-0.01349l2.59609,-3.81253c0.15106,-0.2226 0.39837,-0.37572 0.67314,-0.37572h6.77193c0.27466,0 0.5357,0.15312 0.68676,0.38921l2.51369,3.79904l2.62367,0.01349c1.84067,0 3.35175,1.53122 3.35163,3.39634zM23.35158,18.57666h-0.01373v-10.97958c0,-0.94639 -0.76916,-1.72549 -1.70322,-1.72549l-3.07697,-0.02766c-0.26093,0 -0.52197,-0.1538 -0.67303,-0.3764l-2.50008,-3.78555h-5.89279l-2.59621,3.81321c-0.15106,0.22327 -0.39825,0.37572 -0.67303,0.37572h-2.87086c-0.93407,0 -1.70334,0.77977 -1.70334,1.72616v10.97958c0,0.94504 0.76927,1.75247 1.70334,1.75247h18.2967c0.93395,0 1.70322,-0.80743 1.70322,-1.75247zM18.40659,12.11923c0,3.25603 -2.62367,5.91374 -5.83797,5.91374c-3.2143,0 -5.83797,-2.65771 -5.83797,-5.91374c0,-3.25603 2.60994,-5.91374 5.83797,-5.91374c3.2143,0 5.83797,2.65771 5.83797,5.91374zM16.75818,12.11923c0,-2.33798 -1.88187,-4.24357 -4.18957,-4.24357c-2.3077,0 -4.18957,1.90559 -4.18957,4.24357c0,2.3373 1.88187,4.24424 4.18957,4.24424c2.3077,0 4.18957,-1.90694 4.18957,-4.24424zM20.38458,8.33368c0.17452,0 0.31597,0.14368 0.31597,0.32108c0,0.17606 -0.14145,0.31973 -0.31597,0.31973c-0.17452,0 -0.31597,-0.14368 -0.31597,-0.31973c0,-0.17741 0.14145,-0.32108 0.31597,-0.32108zM21.52464,8.65476c0,0.63947 -0.50823,1.15415 -1.14006,1.15415c-0.63194,0 -1.14017,-0.51468 -1.14017,-1.15415c0,-0.64082 0.50835,-1.1555 1.14017,-1.1555c0.63183,0 1.14006,0.51468 1.14006,1.1555zM20.89281,8.65476c0,-0.27859 -0.23346,-0.51535 -0.50823,-0.51535c-0.27466,0 -0.50823,0.23677 -0.50823,0.51535c0,0.27791 0.21973,0.51468" fill-opacity="1"></path>
   </symbol>
    <symbol id="tag" viewBox="0 0 477.863 477.863">
    <g>
		<path d="M460.796,0H273.063c-4.526,0.001-8.866,1.8-12.066,5.001l-256,256c-6.663,6.665-6.663,17.468,0,24.132L192.73,472.866
			c6.665,6.662,17.468,6.662,24.132,0l256-256c3.201-3.2,5-7.54,5.001-12.066V17.067C477.863,7.641,470.222,0,460.796,0z
			 M443.73,197.734L204.796,436.668L41.195,273.067L280.129,34.133H443.73V197.734z"/>

		<path d="M358.396,68.267c-28.277,0-51.2,22.923-51.2,51.2s22.923,51.2,51.2,51.2s51.2-22.923,51.2-51.2
			S386.673,68.267,358.396,68.267z M358.396,136.533c-9.426,0-17.067-7.641-17.067-17.067s7.641-17.067,17.067-17.067
			s17.067,7.641,17.067,17.067S367.822,136.533,358.396,136.533z"/>
	</g>
    </symbol>
    <symbol id="thumbs-up" viewBox="0 0 512 512">
    	<g>
		<path d="M512,304c0-12.821-5.099-24.768-13.888-33.579c9.963-10.901,15.04-25.515,13.653-40.725
			c-2.496-27.115-26.923-48.363-55.637-48.363H324.352c6.528-19.819,16.981-56.149,16.981-85.333c0-46.272-39.317-85.333-64-85.333
			c-22.144,0-37.995,12.48-38.656,12.992c-2.539,2.027-4.011,5.099-4.011,8.341v72.341L173.205,237.44l-2.539,1.301v-4.075
			c0-5.888-4.779-10.667-10.667-10.667H53.333C23.915,224,0,247.915,0,277.333V448c0,29.419,23.915,53.333,53.333,53.333h64
			c23.061,0,42.773-14.72,50.197-35.264C185.28,475.2,209.173,480,224,480h195.819c23.232,0,43.563-15.659,48.341-37.248
			c2.453-11.136,1.024-22.336-3.84-32.064c15.744-7.915,26.347-24.192,26.347-42.688c0-7.552-1.728-14.784-4.992-21.312
			C501.419,338.752,512,322.496,512,304z M467.008,330.325c-4.117,0.491-7.595,3.285-8.917,7.232
			c-1.301,3.947-0.213,8.277,2.816,11.136c5.419,5.099,8.427,11.968,8.427,19.307c0,13.461-10.176,24.768-23.637,26.325
			c-4.117,0.491-7.595,3.285-8.917,7.232c-1.301,3.947-0.213,8.277,2.816,11.136c7.019,6.613,9.835,15.893,7.723,25.451
			c-2.624,11.904-14.187,20.523-27.499,20.523H224c-17.323,0-46.379-8.128-56.448-18.219c-3.051-3.029-7.659-3.925-11.627-2.304
			c-3.989,1.643-6.592,5.547-6.592,9.856c0,17.643-14.357,32-32,32h-64c-17.643,0-32-14.357-32-32V277.333c0-17.643,14.357-32,32-32
			h96V256c0,3.691,1.92,7.125,5.077,9.088c3.115,1.877,7.04,2.069,10.368,0.448l21.333-10.667c2.155-1.067,3.883-2.859,4.907-5.056
			l64-138.667c0.64-1.408,0.981-2.944,0.981-4.48V37.781C260.437,35.328,268.139,32,277.333,32C289.024,32,320,61.056,320,96
			c0,37.547-20.437,91.669-20.629,92.203c-1.237,3.264-0.811,6.955,1.173,9.856c2.005,2.88,5.291,4.608,8.789,4.608h146.795
			c17.792,0,32.896,12.736,34.389,28.992c1.131,12.16-4.715,23.723-15.189,30.187c-3.264,2.005-5.205,5.632-5.056,9.493
			s2.368,7.317,5.781,9.088c9.024,4.587,14.613,13.632,14.613,23.573C490.667,317.461,480.491,328.768,467.008,330.325z"/>

		<path d="M160,245.333c-5.888,0-10.667,4.779-10.667,10.667v192c0,5.888,4.779,10.667,10.667,10.667s10.667-4.779,10.667-10.667
			V256C170.667,250.112,165.888,245.333,160,245.333z"/>
	</g>
    </symbol>
    <symbol id="star" viewBox="0 -10 511.98685 511">
     <path d="m114.59375 491.140625c-5.609375 0-11.179688-1.75-15.933594-5.1875-8.855468-6.417969-12.992187-17.449219-10.582031-28.09375l32.9375-145.089844-111.703125-97.960937c-8.210938-7.167969-11.347656-18.519532-7.976562-28.90625 3.371093-10.367188 12.542968-17.707032 23.402343-18.710938l147.796875-13.417968 58.433594-136.746094c4.308594-10.046875 14.121094-16.535156 25.023438-16.535156 10.902343 0 20.714843 6.488281 25.023437 16.511718l58.433594 136.769532 147.773437 13.417968c10.882813.980469 20.054688 8.34375 23.425782 18.710938 3.371093 10.367187.253906 21.738281-7.957032 28.90625l-111.703125 97.941406 32.9375 145.085938c2.414063 10.667968-1.726562 21.699218-10.578125 28.097656-8.832031 6.398437-20.609375 6.890625-29.910156 1.300781l-127.445312-76.160156-127.445313 76.203125c-4.308594 2.558594-9.109375 3.863281-13.953125 3.863281zm141.398438-112.875c4.84375 0 9.640624 1.300781 13.953124 3.859375l120.277344 71.9375-31.085937-136.941406c-2.21875-9.746094 1.089843-19.921875 8.621093-26.515625l105.472657-92.5-139.542969-12.671875c-10.046875-.917969-18.6875-7.234375-22.613281-16.492188l-55.082031-129.046875-55.148438 129.066407c-3.882812 9.195312-12.523438 15.511718-22.546875 16.429687l-139.5625 12.671875 105.46875 92.5c7.554687 6.613281 10.859375 16.769531 8.621094 26.539062l-31.0625 136.9375 120.277343-71.914062c4.308594-2.558594 9.109376-3.859375 13.953126-3.859375zm-84.585938-221.847656s0 .023437-.023438.042969zm169.128906-.0625.023438.042969c0-.023438 0-.023438-.023438-.042969zm0 0"/>
    </symbol>
    <symbol id="bookmarks" viewBox="1 1.999 22 28">
    <path paint-order="stroke fill markers" fill-rule="evenodd" d="M21.087 2H2.913C1.858 2 1 2.784 1 3.75v25.008c0 .506.22.91.604 1.111.384.2.877.168 1.353-.089l8.051-4.352c.528-.286 1.455-.286 1.984 0l8.051 4.352c.27.145.545.22.802.22.197 0 .384-.045.55-.131.385-.201.605-.605.605-1.111V3.75C23 2.785 22.142 2 21.087 2zm.956 26.758c0 .213-.065.322-.121.35-.056.03-.193.026-.392-.081l-8.051-4.353c-.415-.224-.947-.336-1.479-.336-.532 0-1.064.112-1.479.336l-8.05 4.353c-.2.107-.337.11-.393.082-.056-.03-.121-.138-.121-.351V3.75c0-.483.429-.876.956-.876v.876c0 .241.214.436.478.436s.478-.195.478-.436v-.876H20.13v.876c0 .241.215.436.479.436s.478-.195.478-.436v-.876c.527 0 .956.393.956.876v25.008zM3.391 5.062c-.264 0-.478.196-.478.438v.875c0 .241.214.437.478.437s.478-.196.478-.437V5.5c0-.242-.214-.438-.478-.438zm0 2.625c-.264 0-.478.196-.478.437v18.813c0 .241.214.438.478.438s.478-.197.478-.438V8.124c0-.241-.214-.437-.478-.437zM20.61 5.062c-.264 0-.479.196-.479.438v.875c0 .241.215.437.479.437s.478-.196.478-.437V5.5c0-.242-.214-.438-.478-.438zm0 2.625c-.264 0-.479.196-.479.437v18.813c0 .241.215.438.479.438s.478-.197.478-.438V8.124c0-.241-.214-.437-.478-.437z"/>
    </symbol>
    <symbol id="background-shape"  y="0" viewBox="0 0 1928 652"  preserveAspectRatio="xMidYMid slice">
        <path d="M1921.99997,2.99952c-14.50001,49.83004 -351.50002,452.61211 -828.00007,342.0001c-476.49994,-110.61269 -1093.9999,169.00002 -1093.9999,169.00002v0v137.49941v0h1920v0c0,0 16.49998,-698.33025 1.99997,-648.49953z"> </path>
    </symbol>
    <symbol id="angle-up"  viewBox="0 0 320 512">
        <path fill="currentColor" d="M177 159.7l136 136c9.4 9.4 9.4 24.6 0 33.9l-22.6 22.6c-9.4 9.4-24.6 9.4-33.9 0L160 255.9l-96.4 96.4c-9.4 9.4-24.6 9.4-33.9 0L7 329.7c-9.4-9.4-9.4-24.6 0-33.9l136-136c9.4-9.5 24.6-9.5 34-.1z"></path>
    </symbol>    
        </svg>
