<?xml version="1.0" encoding="iso-8859-1"?>
<!-- Generator: Adobe Illustrator 19.0.0, SVG Export Plug-In . SVG Version: 6.00 Build 0)  -->
<svg version="1.1" id="Capa_1" xmlns="http://www.w3.org/2000/svg" xmlns:xlink="http://www.w3.org/1999/xlink" x="0px" y="0px"
	 viewBox="0 0 512 512" style="enable-background:new 0 0 512 512;" xml:space="preserve">
<path style="fill:#8062A7;" d="M75,180.5c-16.871,0-32.456,5.603-45,15.041V121.5H0v134c0,41.355,33.645,75,75,75s75-33.645,75-75
	S116.355,180.5,75,180.5z M75,300.5c-24.813,0-45-20.187-45-45s20.187-45,45-45s45,20.187,45,45S99.813,300.5,75,300.5z"/>
<g>
	<rect x="315" y="181.82" style="fill:#564D80;" width="30" height="148.68"/>
	<path style="fill:#564D80;" d="M474.5,330.5c-15.423,0-29.495-9.673-35.019-24.069l-34.948-89.734
		c-0.945-2.46-3.469-4.877-7.033-4.877c-4.136,0-7.5,3.364-7.5,7.5V330.5h-30V219.319c0-20.678,16.822-37.5,37.5-37.5
		c15.415,0,29.485,9.667,35.013,24.054l34.951,89.742c0.946,2.467,3.471,4.885,7.036,4.885c4.136,0,7.5-3.364,7.5-7.5V181.819h30
		V293C512,313.678,495.178,330.5,474.5,330.5z"/>
	<rect x="224.34" y="360.5" style="fill:#564D80;" width="287.66" height="30"/>
	<path style="fill:#564D80;" d="M224.341,181.819l-10,15l10,15c19.186,0,35.561,12.252,41.724,29.34h-57.383v30h57.383
		c-6.163,17.089-22.537,29.341-41.724,29.341l-10,15l10,15c40.991,0,74.341-33.349,74.341-74.341
		C298.682,215.168,265.332,181.819,224.341,181.819z"/>
</g>
<path style="fill:#8062A7;" d="M180,256.159c0-24.449,19.892-44.34,44.341-44.34v-30c-40.991,0-74.341,33.349-74.341,74.34
	c0,40.992,33.35,74.341,74.341,74.341v-30C199.892,300.5,180,280.609,180,256.159z"/>
<g>
</g>
<g>
</g>
<g>
</g>
<g>
</g>
<g>
</g>
<g>
</g>
<g>
</g>
<g>
</g>
<g>
</g>
<g>
</g>
<g>
</g>
<g>
</g>
<g>
</g>
<g>
</g>
<g>
</g>
</svg>
